<?xml version="1.0" encoding="iso-8859-1"?>
<!-- Generator: Adobe Illustrator 19.0.0, SVG Export Plug-In . SVG Version: 6.00 Build 0)  -->
<!-- License: CC0. Made by SVG Repo: https://www.svgrepo.com/svg/297046/ladybug-bug -->
<svg version="1.1" id="Layer_1" xmlns="http://www.w3.org/2000/svg" xmlns:xlink="http://www.w3.org/1999/xlink" x="0px" y="0px"
	 viewBox="0 0 512 512" style="enable-background:new 0 0 512 512;" xml:space="preserve">
<path style="fill:#79695A;" d="M216.706,67.794L177.413,28.5c-6.521-6.516-6.521-17.092,0-23.609c6.521-6.521,17.087-6.521,23.609,0
	l39.294,39.294c6.521,6.516,6.521,17.092,0,23.609C233.794,74.316,223.229,74.316,216.706,67.794z"/>
<g>
	<path style="fill:#6C5B52;" d="M271.685,67.794c-6.521-6.516-6.521-17.092,0-23.609l39.294-39.294
		c6.521-6.521,17.087-6.521,23.609,0c6.521,6.516,6.521,17.092,0,23.609l-39.294,39.294
		C288.771,74.316,278.206,74.316,271.685,67.794z"/>
	<path style="fill:#6C5B52;" d="M489.739,304.696h-66.783c-9.217,0-16.696-7.473-16.696-16.696s7.479-16.696,16.696-16.696h66.783
		c9.217,0,16.696,7.473,16.696,16.696S498.956,304.696,489.739,304.696z"/>
</g>
<g>
	<path style="fill:#79695A;" d="M89.044,304.696H22.261c-9.217,0-16.696-7.473-16.696-16.696s7.479-16.696,16.696-16.696h66.783
		c9.217,0,16.696,7.473,16.696,16.696S98.261,304.696,89.044,304.696z"/>
	<path style="fill:#79695A;" d="M78.913,476.213c-6.521-6.521-6.521-17.092,0-23.609l33.522-33.516
		c6.521-6.521,17.087-6.521,23.609,0s6.521,17.092,0,23.609l-33.522,33.516C96,482.734,85.435,482.734,78.913,476.213z"/>
	<path style="fill:#79695A;" d="M124.077,186.915l-45.163-45.152c-6.527-6.517-6.522-17.086,0-23.609
		c6.521-6.521,17.087-6.521,23.609,0l45.163,45.152c6.527,6.517,6.522,17.086,0,23.609S130.598,193.436,124.077,186.915z"/>
</g>
<g>
	<path style="fill:#6C5B52;" d="M409.479,476.213l-33.522-33.516c-6.521-6.516-6.521-17.087,0-23.609s17.087-6.521,23.609,0
		l33.522,33.516c6.521,6.516,6.521,17.087,0,23.609C426.565,482.734,416,482.734,409.479,476.213z"/>
	<path style="fill:#6C5B52;" d="M364.315,186.915c-6.522-6.522-6.527-17.092,0-23.609l45.163-45.152
		c6.521-6.521,17.087-6.521,23.609,0c6.522,6.522,6.527,17.092,0,23.609l-45.163,45.152
		C381.402,193.436,370.837,193.436,364.315,186.915z"/>
	<path style="fill:#6C5B52;" d="M339.478,116.87c0,5.565-0.557,11.13-1.67,16.584c-1.558,8.014-8.569,13.468-16.362,13.468
		L256,146.699l-62.109-0.111c-9.015,1.781-17.919-4.007-19.7-13.134c-1.113-5.454-1.67-11.019-1.67-16.584
		c0-46.08,37.398-83.478,83.478-83.478S339.478,70.79,339.478,116.87z"/>
</g>
<path style="fill:#61524A;" d="M339.478,116.87c0,5.565-0.557,11.13-1.67,16.584c-1.558,8.014-8.569,13.468-16.362,13.468
	L256,146.699V33.392C302.08,33.392,339.478,70.79,339.478,116.87z"/>
<path style="fill:#FF6243;" d="M439.652,283.826v44.522c0,95.722-73.461,174.414-166.957,182.873
	C267.131,511.778,261.565,512,256,512s-11.13-0.223-16.696-0.779c-93.496-8.459-166.957-87.151-166.957-182.873v-44.522
	c0-41.739,14.136-80.139,37.621-110.97c6.79-8.904,14.357-17.141,22.705-24.71c31.278,32.167,75.019,52.202,123.326,52.202
	s92.049-20.035,123.326-52.202c8.348,7.569,15.915,15.805,22.705,24.71C425.517,203.687,439.652,242.087,439.652,283.826z"/>
<path style="fill:#FF0C38;" d="M439.652,283.826v44.522c0,95.722-73.461,174.414-166.957,182.873
	C267.131,511.778,261.565,512,256,512V200.348c48.307,0,92.049-20.035,123.326-52.202c8.348,7.569,15.915,15.805,22.705,24.71
	C425.517,203.687,439.652,242.087,439.652,283.826z"/>
<g>
	<circle style="fill:#6E6057;" cx="189.218" cy="395.131" r="16.696"/>
	<circle style="fill:#6E6057;" cx="155.826" cy="261.565" r="16.696"/>
	<circle style="fill:#6E6057;" cx="189.218" cy="328.348" r="16.696"/>
</g>
<g>
	<circle style="fill:#6C5B52;" cx="322.783" cy="395.131" r="16.696"/>
	<circle style="fill:#6C5B52;" cx="322.783" cy="328.348" r="16.696"/>
	<circle style="fill:#6C5B52;" cx="356.174" cy="261.565" r="16.696"/>
</g>
<path style="fill:#79695A;" d="M272.696,211.479v299.743C267.131,511.778,261.565,512,256,512s-11.13-0.223-16.696-0.779V211.479
	H272.696z"/>
<path style="fill:#6C5B52;" d="M256,512c5.565,0,11.13-0.223,16.696-0.779V211.479H256V512z"/>
<path style="fill:#79695A;" d="M402.031,172.856c-37.398,37.621-89.043,60.883-146.031,60.883s-108.633-23.263-146.031-60.883
	c6.79-8.904,14.357-17.141,22.705-24.71c32.613-29.718,75.799-47.972,123.326-47.972s90.713,18.254,123.326,47.972
	C387.674,155.715,395.242,163.952,402.031,172.856z"/>
<path style="fill:#6C5B52;" d="M402.031,172.856c-37.398,37.621-89.043,60.883-146.031,60.883V100.174
	c47.527,0,90.713,18.254,123.326,47.972C387.674,155.715,395.242,163.952,402.031,172.856z"/>
</svg>
